#!OML:ASF I:\Actors\actors\Patient Classification 2\Patient 1\Session 1\actor1.ASF
:FULLY-SPECIFIED
:DEGREES
472
root 1.49295 17.4647 3.49258 27.9827 -40.5069 -10.782
lowerback 34.5117 -1.78979 -4.66503
upperback 7.69364 -4.2389 -0.444132
thorax -8.68813 -2.05946 3.59895
lowerneck -19.4091 8.80156 11.1288
upperneck 20.6761 10.7734 -8.224
head 10.9635 4.81044 -3.10021
rclavicle 6.36111e-014 4.6118e-014
rhumerus -21.3292 38.8927 -92.3414
rradius 90.6942
rwrist -0.698696
rhand -17.8395 -70.541
rfingers 7.12502
rthumb 8.42522 -259.647
lclavicle 6.36111e-014 4.6118e-014
lhumerus 21.8214 1.64651 79.5154
lradius 62.5256
lwrist 80.2664
lhand -42.1942 -7.35145
lfingers 7.12502
lthumb -15.0823 22.0791
rfemur -21.1744 19.0473 6.85147
rtibia -27.5492
rfoot 16.473 -15.3305
rtoes -5.9231
lfemur 7.8788 22.3409 -20.1941
ltibia -50.1364
lfoot 20.7697 21.3511
ltoes -9.74127
473
root 1.44671 17.4613 3.49614 28.0089 -40.848 -10.6273
lowerback 34.3272 -1.84186 -4.69645
upperback 7.62985 -4.28906 -0.303686
thorax -8.67356 -2.08226 3.77826
lowerneck -19.3151 8.88205 11.2082
upperneck 20.6154 10.9427 -8.51425
head 10.9666 4.86272 -3.19098
rclavicle -1.1609e-013 -2.06736e-014
rhumerus -20.1801 38.8337 -91.4341
rradius 91.4967
rwrist -0.537324
rhand -17.9032 -70.2035
rfingers 7.12502
rthumb 8.36378 -259.982
lclavicle -1.1609e-013 -2.06736e-014
lhumerus 23.0767 2.15105 79.4981
lradius 61.7399
lwrist 79.6763
lhand -42.2164 -7.13466
lfingers 7.12502
lthumb -15.1036 22.2943
rfemur -20.9852 19.1394 6.7975
rtibia -28.1569
rfoot 16.8916 -15.4844
rtoes -5.28398
lfemur 7.96909 22.2889 -20.2282
ltibia -50.1051
lfoot 20.6294 21.6479
ltoes -9.7667
474
root 1.39493 17.4675 3.51673 27.7403 -41.2614 -10.4777
lowerback 34.3736 -1.90145 -4.73203
upperback 7.55128 -4.37049 -0.212294
thorax -8.76208 -2.11553 3.92857
lowerneck -19.0676 8.97627 11.2935
upperneck 20.6254 11.1677 -8.88111
head 10.98 4.93459 -3.30611
rclavicle -4.6118e-014 3.02153e-014
rhumerus -19.851 39.1014 -90.7061
rradius 92.4776
rwrist -0.435972
rhand -18.4372 -70.0621
rfingers 7.12502
rthumb 7.84835 -260.104
lclavicle -4.6118e-014 3.02153e-014
lhumerus 23.2594 2.08014 79.2167
lradius 61.9602
lwrist 79.8339
lhand -41.9815 -7.31525
lfingers 7.12502
lthumb -14.8774 22.1306
rfemur -20.4443 19.3688 6.83146
rtibia -28.6703
rfoot 17.2966 -15.4757
rtoes -5.13103
lfemur 8.41069 22.3003 -20.1691
ltibia -49.9496
lfoot 20.3388 21.9517
ltoes -9.4683
475
root 1.33922 17.4751 3.54292 27.6418 -41.7009 -10.3791
lowerback 34.086 -1.9745 -4.65794
upperback 7.44593 -4.42581 -0.240616
thorax -8.77309 -2.13834 3.87392
lowerneck -18.8917 9.04947 11.4433
upperneck 20.8501 11.29 -9.01618
head 11.0638 4.98664 -3.36485
rclavicle 4.92986e-014 -1.03368e-013
rhumerus -20.3712 39.2207 -90.3828
rradius 93.5752
rwrist -0.440456
rhand -19.7551 -68.7273
rfingers 7.12502
rthumb 6.57627 -261.395
lclavicle 4.92986e-014 -1.03368e-013
lhumerus 22.6333 1.3156 78.7145
lradius 62.9207
lwrist 80.3946
lhand -41.8163 -8.07722
lfingers 7.12502
lthumb -14.7182 21.3803
rfemur -20.0956 19.6698 6.80853
rtibia -29.0812
rfoot 17.6916 -15.3496
rtoes -5.65629
lfemur 8.67415 22.3963 -20.1468
ltibia -49.7147
lfoot 20.042 22.2719
ltoes -9.17353
476
root 1.28311 17.4906 3.57471 27.3785 -42.0781 -10.2831
lowerback 33.9108 -2.02521 -4.4203
upperback 7.34491 -4.41866 -0.38478
thorax -8.84709 -2.13177 3.59254
lowerneck -18.6993 9.00492 11.8138
upperneck 21.1503 11.1642 -9.05743
head 11.1517 4.95512 -3.4704
rclavicle 9.54166e-015 1.90833e-014
rhumerus -21.7924 38.7797 -90.7105
rradius 94.68
rwrist -0.273195
rhand -19.344 -69.3037
rfingers 7.12502
rthumb 6.97309 -260.831
lclavicle 9.54166e-015 1.90833e-014
lhumerus 21.4953 0.0550202 78.3372
lradius 64.3624
lwrist 81.0354
lhand -42.0701 -8.47064
lfingers 7.12502
lthumb -14.9627 20.9688
rfemur -19.6221 20.0704 6.81509
rtibia -29.2945
rfoot 17.7763 -15.37
rtoes -5.55327
lfemur 9.09047 22.5133 -20.0356
ltibia -49.3733
lfoot 19.7661 22.3565
ltoes -9.80957
477
root 1.22795 17.5118 3.61169 27.0139 -42.4123 -10.123
lowerback 33.744 -2.1222 -4.22782
upperback 7.22459 -4.47963 -0.484921
thorax -8.93371 -2.15557 3.40698
lowerneck -18.4249 8.95325 12.111
upperneck 21.4841 11.0819 -9.17783
head 11.2423 4.93035 -3.58942
rclavicle 1.11319e-014 -4.45278e-014
rhumerus -23.9415 38.2872 -91.432
rradius 95.6936
rwrist 0.101249
rhand -18.3853 -69.7398
rfingers 7.12502
rthumb 7.89848 -260.428
lclavicle 1.11319e-014 -4.45278e-014
lhumerus 19.8078 -1.12117 78.4037
lradius 66.0699
lwrist 81.6282
lhand -42.5703 -9.0991
lfingers 7.12502
lthumb -15.4445 20.3039
rfemur -19.1227 20.4016 6.82527
rtibia -29.3562
rfoot 17.6913 -15.3971
rtoes -4.98444
lfemur 9.55628 22.5465 -19.9281
ltibia -48.9752
lfoot 19.4932 22.2612
ltoes -10.9602
478
root 1.17216 17.5438 3.66716 26.478 -42.6158 -10.4013
lowerback 33.9673 -2.35212 -3.72465
upperback 7.19627 -4.61036 -0.473949
thorax -9.07851 -2.22017 3.21242
lowerneck -18.1037 8.9955 12.2534
upperneck 21.8255 11.1923 -9.33417
head 11.3432 4.97651 -3.66474
rclavicle -2.22639e-014 4.45278e-014
rhumerus -26.5523 38.0516 -92.0975
rradius 96.6724
rwrist 0.375106
rhand -18.5155 -69.2549
rfingers 7.12502
rthumb 7.77281 -260.908
lclavicle -2.22639e-014 4.45278e-014
lhumerus 17.6683 -1.82729 79.0193
lradius 67.8897
lwrist 82.064
lhand -43.1444 -9.84146
lfingers 7.12502
lthumb -15.9974 19.518
rfemur -18.0482 20.7761 7.44746
rtibia -29.312
rfoot 17.5496 -15.1702
rtoes -4.70644
lfemur 10.6072 22.4635 -19.2382
ltibia -48.4667
lfoot 19.026 22.4264
ltoes -11.4406
479
root 1.11716 17.5705 3.71685 26.1233 -42.7902 -10.668
lowerback 33.9457 -2.59997 -3.2705
upperback 7.17787 -4.76471 -0.448651
thorax -9.11373 -2.2988 3.05711
lowerneck -17.7831 9.08412 12.3488
upperneck 22.1051 11.3601 -9.421
head 11.4208 5.05337 -3.69592
rclavicle 7.95139e-014 1.11319e-014
rhumerus -29.4459 37.7705 -92.7066
rradius 97.652
rwrist 0.659422
rhand -18.6712 -69.0303
rfingers 7.12502
rthumb 7.62256 -261.127
lclavicle 7.95139e-014 1.11319e-014
lhumerus 15.3449 -2.33947 79.9724
lradius 69.6969
lwrist 82.5182
lhand -43.7116 -10.7918
lfingers 7.12502
lthumb -16.5435 18.523
rfemur -17.2235 21.1035 7.98221
rtibia -29.228
rfoot 17.3716 -15.0538
rtoes -4.02747
lfemur 11.3673 22.3791 -18.6481
ltibia -47.8972
lfoot 18.6382 22.6147
ltoes -12.1263
480
root 1.0572 17.5919 3.76793 25.606 -43.4566 -10.167
lowerback 33.467 -2.60984 -3.58971
upperback 7.15463 -4.88562 -0.601123
thorax -8.93648 -2.35519 3.08805
lowerneck -17.4496 9.17942 12.4766
upperneck 22.2064 11.5211 -9.51296
head 11.4308 5.13276 -3.73349
rclavicle -1.27222e-014 8.11041e-014
rhumerus -32.4817 37.3108 -93.3525
rradius 98.58
rwrist 0.994847
rhand -18.6386 -69.0669
rfingers 7.12502
rthumb 7.65403 -261.092
lclavicle -1.27222e-014 8.11041e-014
lhumerus 12.9307 -2.80274 81.1586
lradius 71.4644
lwrist 82.8093
lhand -44.2996 -11.5625
lfingers 7.12502
lthumb -17.1096 17.7041
rfemur -16.9306 21.5054 7.55366
rtibia -29.1139
rfoot 17.2047 -14.9206
rtoes -3.46297
lfemur 11.665 22.3807 -18.9757
ltibia -47.266
lfoot 18.1762 22.8921
ltoes -13.0777
481
root 0.999436 17.6121 3.81799 25.2078 -44.1295 -9.71514
lowerback 32.879 -2.59249 -3.86734
upperback 7.14806 -4.95156 -0.766984
thorax -8.70349 -2.38975 3.05695
lowerneck -17.1173 9.2322 12.6946
upperneck 22.2032 11.6049 -9.65399
head 11.4018 5.18152 -3.8164
rclavicle 2.54444e-014 -6.04305e-014
rhumerus -35.6275 36.5775 -94.0011
rradius 99.4335
rwrist 1.26698
rhand -18.5154 -68.7213
rfingers 7.12502
rthumb 7.77293 -261.442
lclavicle 2.54444e-014 -6.04305e-014
lhumerus 10.3926 -3.18094 82.6619
lradius 73.1183
lwrist 82.8189
lhand -44.5735 -12.665
lfingers 7.12502
lthumb -17.3732 16.5786
rfemur -16.7261 21.8757 7.13807
rtibia -29.0357
rfoot 17.1008 -14.6128
rtoes -3.51609
lfemur 11.8691 22.3947 -19.3055
ltibia -46.6542
lfoot 17.49 23.357
ltoes -12.6998
